<svg id="visual" viewBox="0 0 900 600" width="900" height="600" xmlns="http://www.w3.org/2000/svg" xmlns:xlink="http://www.w3.org/1999/xlink" version="1.1"><rect x="0" y="0" width="900" height="600" fill="#e0e3e9"></rect><defs><linearGradient id="grad1_0" x1="33.3%" y1="100%" x2="100%" y2="0%"><stop offset="20%" stop-color="#2563eb" stop-opacity="1"></stop><stop offset="80%" stop-color="#2563eb" stop-opacity="1"></stop></linearGradient></defs><defs><linearGradient id="grad1_1" x1="33.3%" y1="100%" x2="100%" y2="0%"><stop offset="20%" stop-color="#2563eb" stop-opacity="1"></stop><stop offset="80%" stop-color="#5b84ef" stop-opacity="1"></stop></linearGradient></defs><defs><linearGradient id="grad1_2" x1="33.3%" y1="100%" x2="100%" y2="0%"><stop offset="20%" stop-color="#87a5ef" stop-opacity="1"></stop><stop offset="80%" stop-color="#5b84ef" stop-opacity="1"></stop></linearGradient></defs><defs><linearGradient id="grad1_3" x1="33.3%" y1="100%" x2="100%" y2="0%"><stop offset="20%" stop-color="#87a5ef" stop-opacity="1"></stop><stop offset="80%" stop-color="#b2c4ed" stop-opacity="1"></stop></linearGradient></defs><defs><linearGradient id="grad1_4" x1="33.3%" y1="100%" x2="100%" y2="0%"><stop offset="20%" stop-color="#e0e3e9" stop-opacity="1"></stop><stop offset="80%" stop-color="#b2c4ed" stop-opacity="1"></stop></linearGradient></defs><defs><linearGradient id="grad2_0" x1="0%" y1="100%" x2="66.7%" y2="0%"><stop offset="20%" stop-color="#2563eb" stop-opacity="1"></stop><stop offset="80%" stop-color="#2563eb" stop-opacity="1"></stop></linearGradient></defs><defs><linearGradient id="grad2_1" x1="0%" y1="100%" x2="66.7%" y2="0%"><stop offset="20%" stop-color="#5b84ef" stop-opacity="1"></stop><stop offset="80%" stop-color="#2563eb" stop-opacity="1"></stop></linearGradient></defs><defs><linearGradient id="grad2_2" x1="0%" y1="100%" x2="66.7%" y2="0%"><stop offset="20%" stop-color="#5b84ef" stop-opacity="1"></stop><stop offset="80%" stop-color="#87a5ef" stop-opacity="1"></stop></linearGradient></defs><defs><linearGradient id="grad2_3" x1="0%" y1="100%" x2="66.7%" y2="0%"><stop offset="20%" stop-color="#b2c4ed" stop-opacity="1"></stop><stop offset="80%" stop-color="#87a5ef" stop-opacity="1"></stop></linearGradient></defs><defs><linearGradient id="grad2_4" x1="0%" y1="100%" x2="66.7%" y2="0%"><stop offset="20%" stop-color="#b2c4ed" stop-opacity="1"></stop><stop offset="80%" stop-color="#e0e3e9" stop-opacity="1"></stop></linearGradient></defs><g transform="translate(900, 600)"><path d="M-459.7 0C-447.1 -40.4 -434.6 -80.8 -410.5 -110C-386.5 -139.2 -351 -157.3 -341.2 -197C-331.4 -236.7 -347.3 -297.9 -325.1 -325.1C-302.8 -352.2 -242.3 -345.3 -199 -344.7C-155.7 -344.1 -129.4 -349.7 -99.1 -369.9C-68.8 -390.2 -34.4 -424.9 0 -459.7L0 0Z" fill="#c9d4eb"></path><path d="M-367.8 0C-357.7 -32.3 -347.6 -64.6 -328.4 -88C-309.2 -111.4 -280.8 -125.9 -273 -157.6C-265.1 -189.3 -277.9 -238.3 -260 -260C-242.2 -281.8 -193.9 -276.2 -159.2 -275.7C-124.5 -275.2 -103.6 -279.8 -79.3 -296C-55.1 -312.1 -27.5 -340 0 -367.8L0 0Z" fill="#9cb4ef"></path><path d="M-275.8 0C-268.3 -24.2 -260.7 -48.5 -246.3 -66C-231.9 -83.5 -210.6 -94.4 -204.7 -118.2C-198.9 -142 -208.4 -178.7 -195 -195C-181.7 -211.3 -145.4 -207.2 -119.4 -206.8C-93.4 -206.4 -77.7 -209.8 -59.5 -222C-41.3 -234.1 -20.6 -255 0 -275.8L0 0Z" fill="#7194ef"></path><path d="M-183.9 0C-178.9 -16.2 -173.8 -32.3 -164.2 -44C-154.6 -55.7 -140.4 -62.9 -136.5 -78.8C-132.6 -94.7 -138.9 -119.2 -130 -130C-121.1 -140.9 -96.9 -138.1 -79.6 -137.9C-62.3 -137.6 -51.8 -139.9 -39.7 -148C-27.5 -156.1 -13.8 -170 0 -183.9L0 0Z" fill="#4374ed"></path><path d="M-91.9 0C-89.4 -8.1 -86.9 -16.2 -82.1 -22C-77.3 -27.8 -70.2 -31.5 -68.2 -39.4C-66.3 -47.3 -69.5 -59.6 -65 -65C-60.6 -70.4 -48.5 -69.1 -39.8 -68.9C-31.1 -68.8 -25.9 -69.9 -19.8 -74C-13.8 -78 -6.9 -85 0 -91.9L0 0Z" fill="#2563eb"></path></g><g transform="translate(0, 0)"><path d="M459.7 0C421.9 31.6 384.1 63.2 373.8 100.2C363.5 137.1 380.7 179.3 375 216.5C369.3 253.7 340.7 285.7 310.4 310.4C280.2 335.1 248.3 352.4 217 375.9C185.7 399.3 155 429 119 444C82.9 459.1 41.5 459.4 0 459.7L0 0Z" fill="#c9d4eb"></path><path d="M367.8 0C337.5 25.3 307.3 50.6 299.1 80.1C290.8 109.7 304.6 143.5 300 173.2C295.4 202.9 272.5 228.6 248.3 248.3C224.1 268.1 198.6 281.9 173.6 300.7C148.6 319.5 124 343.2 95.2 355.2C66.3 367.2 33.2 367.5 0 367.8L0 0Z" fill="#9cb4ef"></path><path d="M275.8 0C253.1 19 230.5 37.9 224.3 60.1C218.1 82.3 228.4 107.6 225 129.9C221.6 152.2 204.4 171.4 186.3 186.3C168.1 201.1 149 211.4 130.2 225.5C111.4 239.6 93 257.4 71.4 266.4C49.7 275.4 24.9 275.6 0 275.8L0 0Z" fill="#7194ef"></path><path d="M183.9 0C168.8 12.6 153.6 25.3 149.5 40.1C145.4 54.8 152.3 71.7 150 86.6C147.7 101.5 136.3 114.3 124.2 124.2C112.1 134 99.3 140.9 86.8 150.3C74.3 159.7 62 171.6 47.6 177.6C33.2 183.6 16.6 183.8 0 183.9L0 0Z" fill="#4374ed"></path><path d="M91.9 0C84.4 6.3 76.8 12.6 74.8 20C72.7 27.4 76.1 35.9 75 43.3C73.9 50.7 68.1 57.1 62.1 62.1C56 67 49.7 70.5 43.4 75.2C37.1 79.9 31 85.8 23.8 88.8C16.6 91.8 8.3 91.9 0 91.9L0 0Z" fill="#2563eb"></path></g></svg>